# xmcd CD database file
#
# Track frame offsets:
#	150
#	34917
#	65850
#	95210
#	120804
#	147397
#	179821
#	214625
#	243583
#	277631
#	316060
#
# Disc length: 4632 seconds
#
# Revision: 0
# Processed by: cddbd v1.5.2PL0 Copyright (c) Steve Scherf et al.
# Submitted via: CDex 1.51
#
DISCID=a312160b
DTITLE=Rolling Jazz Revue - Elephants In The Crosswalk
DYEAR=2008
DGENRE=Jazz
TTITLE0=Two Strangers
TTITLE1=Safety In Motian
TTITLE2=My Recurring Dream
TTITLE3=City Beneath The Sea
TTITLE4=Fate Plixin
TTITLE5=Asylum Lake
TTITLE6=Elephants In The Crosswalk
TTITLE7=Theme From 'Every Mother's Daughter'
TTITLE8=Hotel El Morillo
TTITLE9=Slow Dance, No Dance
TTITLE10=Sara 'N' Me
EXTD=YEAR: 2008
EXTT0=
EXTT1=
EXTT2=
EXTT3=
EXTT4=
EXTT5=
EXTT6=
EXTT7=
EXTT8=
EXTT9=
EXTT10=
PLAYORDER=
